<?xml version="1.0" standalone="no"?>
<!DOCTYPE svg PUBLIC "-//W3C//DTD SVG 20010904//EN"
 "http://www.w3.org/TR/2001/REC-SVG-20010904/DTD/svg10.dtd">
<svg version="1.0" xmlns="http://www.w3.org/2000/svg"
 width="512.000000pt" height="512.000000pt" viewBox="0 0 512.000000 512.000000"
 preserveAspectRatio="xMidYMid meet">
<metadata>
Created by potrace 1.15, written by Peter Selinger 2001-2017
</metadata>
<g transform="translate(0.000000,512.000000) scale(0.100000,-0.100000)"
fill="#ffffff" stroke="none">
<path d="M2545 4235 c-207 -66 -2378 -792 -2397 -801 -35 -18 -48 -43 -48 -89
0 -67 27 -83 305 -175 137 -45 260 -86 272 -91 21 -8 21 -9 -21 -72 -83 -124
-134 -278 -163 -494 -9 -68 -20 -123 -24 -123 -19 0 -86 -71 -107 -114 -51
-101 -16 -246 75 -311 47 -33 50 -48 33 -137 -63 -316 -171 -525 -391 -754
-38 -40 -69 -79 -69 -88 0 -18 47 -50 176 -118 111 -59 168 -80 216 -79 94 0
233 120 306 266 68 135 84 252 71 515 -5 102 -15 230 -23 285 l-15 99 36 39
c46 52 66 100 67 167 1 75 -26 140 -78 188 l-43 40 13 104 c27 207 88 360 180
453 107 106 170 138 764 375 477 191 830 320 876 320 36 0 87 -34 101 -68 35
-84 -7 -137 -145 -183 -177 -58 -436 -156 -789 -298 -465 -187 -460 -185 -461
-196 -1 -12 1261 -435 1297 -435 14 0 561 179 1215 397 1297 432 1246 412
1246 488 0 46 -13 71 -48 89 -25 12 -2351 789 -2397 799 -11 3 -24 4 -30 2z"/>
<path d="M3370 2459 c-669 -224 -752 -250 -810 -250 -58 0 -141 25 -797 245
l-732 244 -10 -31 c-13 -41 -31 -160 -31 -212 0 -36 6 -45 55 -88 80 -70 118
-152 123 -268 5 -110 -8 -161 -60 -236 l-39 -56 23 -24 c45 -48 144 -116 241
-164 211 -106 518 -185 862 -220 183 -19 601 -16 775 4 514 61 899 203 1072
396 25 28 56 72 69 98 24 48 24 51 27 431 3 309 1 382 -10 381 -7 0 -348 -113
-758 -250z"/>
</g>
</svg>
